# xmcd
#
# Track frame offsets:
#	150
#	11145
#	19046
#	37379
#	52599
#	62907
#	72764
#	84808
#	93381
#	102224
#	113410
#	125070
#	135979
#	151265
#	161559
#	176691
#	186953
#	196392
#	207259
#	219989
#
# Disc length: 3051 seconds
#
# Revision: 0
# Processed by: cddbd v1.4PL0 Copyright (c) Steve Scherf et al.
# Submitted via: audiograbber 1.81.02
#
DISCID=0a0be914
DTITLE=Delbert McClinton - The Crazy Cajun Recordings
DYEAR=1900
DGENRE=
TTITLE0=Don't Let Go
TTITLE1=Lover In Demand
TTITLE2=Without You
TTITLE3=Twist And Shout/La Bamba
TTITLE4=I Lost My Love Today
TTITLE5=A Picture Of You
TTITLE6=Don't Cry No More
TTITLE7=Lose Your Money
TTITLE8=I Cry 'Cause I Care
TTITLE9=Mr. Pitiful
TTITLE10=These Boots Are Made For Walkin'
TTITLE11=Lost In A Dream
TTITLE12=Lord Knows I've Tried
TTITLE13=It's Over
TTITLE14=This Boy
TTITLE15=Except For You
TTITLE16=I Ain't Never
TTITLE17=Cryin' Over You
TTITLE18=You Got Me Hummin'
TTITLE19=Tina
EXTD=
EXTT0=
EXTT1=
EXTT2=
EXTT3=
EXTT4=
EXTT5=
EXTT6=
EXTT7=
EXTT8=
EXTT9=
EXTT10=
EXTT11=
EXTT12=
EXTT13=
EXTT14=
EXTT15=
EXTT16=
EXTT17=
EXTT18=
EXTT19=
PLAYORDER=
